<svg id="Layer_1" data-name="Layer 1" xmlns="http://www.w3.org/2000/svg" viewBox="0 0 1200 605.94"><defs><style>.cls-1{fill:#001041;}.cls-2{fill:#add8e6;}.cls-3{fill:#fff;}</style></defs><title>AVINATION 3</title><path class="cls-1" d="M229.32,291.34H179.08l-8.23,18.12H151.22l43.1-96.08h19.76l43.1,96.08H237.42ZM204.2,233.56l-17.84,40.9H222Z"/><path class="cls-1" d="M307.28,309.87h-18.8l-40-96.49h20.32l29,74.8,29.1-74.8h20.31Z"/><path class="cls-1" d="M364,309.46V213.38h18v96.08Z"/><path class="cls-1" d="M467.6,213.24h18.12v96.22H474.46v.14L424,244.67v64.79H405.83V213.38h14.69L467.6,273Z"/><path class="cls-1" d="M576,291.34H525.79l-8.23,18.12H497.93L541,213.38H560.8l43.09,96.08H584.13Zm-25.12-57.78-17.84,40.9h35.69Z"/><path class="cls-1" d="M626.68,229.85H596.21V213.38h79.06v16.47H644.8v79.61H626.68Z"/><path class="cls-1" d="M691.88,309.46V213.38h18v96.08Z"/><path class="cls-1" d="M829.68,262c-.27,24.84-15.51,49.69-49.27,49.69S731,287.36,731,262.11s16.2-50.65,49.42-50.65S830,236.85,829.68,262Zm-80.84.41c.41,15.78,8.92,32.67,31.57,32.67s31.15-17,31.43-32.81c.27-16.19-8.79-34.31-31.43-34.31S748.43,246.18,748.84,262.38Z"/><path class="cls-1" d="M911.62,213.24h18.12v96.22H918.48v.14L868,244.67v64.79H849.86V213.38h14.68L911.62,273Z"/><path class="cls-2" d="M986,301.67c4.55-.34,9.73.56,13.49-1.35s5.86-6.53,8.65-10c5.17-6.45,10.24-13,15.48-19.37,1.33-1.63,1.11-2.14-.71-3-15.11-7.1-30.51-13.55-45.91-20-1.1-.46-3-.55-2.95-1.93,0-1.69,1.74-2.44,3.23-3,4-1.4,8.06-.8,12.12-.39,16.14,1.62,32,4.91,48.11,7a3.59,3.59,0,0,0,3.84-1.67c6.22-8.11,12.47-16.2,20.11-23.05,4.4-3.94,9.32-7,15.33-7.85,6.47-.9,9.06,1.28,9.23,7.83s-2.61,11.91-6.16,16.95c-5.63,8-12.47,14.93-19.49,21.67-2,1.91-2.23,3.56-1.51,6.05q5.73,20,11.18,40.1c1,3.83,1.79,7.76,2.5,11.67a17,17,0,0,1,.14,4.94c-.19,1.72-.56,3.83-2.42,4.33-2.06.55-2.19-1.83-2.87-3q-12.15-20.89-24.07-41.92c-1.1-1.93-1.67-2.13-3.36-.45-8.5,8.41-17.13,16.69-25.79,24.94a4.74,4.74,0,0,0-1.58,4.33c.69,7.65,1.19,15.32,1.33,23a8.16,8.16,0,0,1-.73,4c-.5.95-1.07,1.95-2.33,1.91s-1.37-1.23-1.7-2.1a79.67,79.67,0,0,0-8.61-16.14c-6-8.8-15.1-12.81-24.66-16.13-1.74-.61-3.54-1-5.32-1.46-.76-.2-1.58-.31-1.81-1.22a2.23,2.23,0,0,1,1-2.26,6.15,6.15,0,0,1,3.7-1.52C977.67,302.29,981.84,302,986,301.67Z"/><path class="cls-3" d="M725.78,467.76A305.58,305.58,0,0,1,692,465.87a274.92,274.92,0,0,1-32.78-5.78,262,262,0,0,1-31.92-9.7,270.07,270.07,0,0,1-30.48-13.57,301.16,301.16,0,0,1-28.58-17.18c-1.52-1.05-3-2.11-4.46-3.18l-2.29-1.66-1.18-.84c-.76-.55-1.53-1.1-2.28-1.68l-6.47-5.07c-1.13-.87-2.24-1.75-3.35-2.71l-6.23-5.27c-1.42-1.19-2.78-2.45-4.1-3.66l-2.08-1.9-.51-.47c-1.87-1.7-3.8-3.45-5.64-5.32l-5.79-5.71c-1.54-1.58-3-3.11-4.42-4.65l-4.12-4.4c-.66-.72-1.26-1.42-1.87-2.11l-6.3-7.24c-1.2-1.43-2.32-2.82-3.44-4.21l-2.49-3.07c-1.49-1.84-3-3.74-4.49-5.73l-4.88-6.47c-1.11-1.45-2.16-3-3.17-4.42-.54-.77-1.07-1.54-1.62-2.3s-1.12-1.6-1.66-2.38c-1-1.44-2.07-2.93-3.07-4.45l-4.45-6.84-2.28-3.53-2.11-3.48-4.2-7-8.12-13.52c-5.2-8.23-10.92-17.11-17.2-25.77a356,356,0,0,0-39.93-47,293.55,293.55,0,0,0-23-20.2,232.33,232.33,0,0,0-25.1-17.33,228.17,228.17,0,0,0-27.11-13.88,217.73,217.73,0,0,0-28.8-10A213.69,213.69,0,0,0,244.39,155q-2.55,0-5.1.06a255.29,255.29,0,0,0-61.3,8.84,280.26,280.26,0,0,0-29.69,9.72,227.26,227.26,0,0,0-28.4,13.12,3.91,3.91,0,0,1-1.94.51,4,4,0,0,1-2.28-7.29c3.94-2.73,8.38-5.45,14-8.56,4.56-2.54,9.29-5,14.46-7.45a284.64,284.64,0,0,1,30.23-12.19,259.63,259.63,0,0,1,31.63-8.5,251.73,251.73,0,0,1,32.58-4.48c5.29-.37,10.66-.56,16-.56a226.33,226.33,0,0,1,112,29.44A276.31,276.31,0,0,1,419.86,207c1.33,1.25,2.64,2.52,3.9,3.76l2,2,1.05,1c.65.63,1.3,1.26,1.94,1.91l2.86,3,2,2.05c1.24,1.28,2.52,2.6,3.75,4l5.43,6.07c8,9.28,14.77,17.67,20.62,25.69,6.87,9.13,13.14,18.72,18.48,27l8.49,13.84,6.12,9.93,2.12,3.2,4.3,6.53c.89,1.33,1.81,2.63,2.79,4l1.63,2.31c.51.72,1.06,1.5,1.6,2.28,1,1.36,1.86,2.66,2.82,3.9l4.73,6.24c1.3,1.77,2.65,3.41,4.07,5.15l.69.84c.59.71,1.18,1.44,1.77,2.17q1.54,1.92,3.12,3.81l6,6.84c.52.6,1,1.2,1.59,1.79l2.62,2.78c28.57,30.94,63,54.72,99.51,68.8a240.13,240.13,0,0,0,29,9.31,271.79,271.79,0,0,0,30,5.9,287.52,287.52,0,0,0,30.55,2.43c2.87.09,5.76.13,8.6.13,7.41,0,14.87-.29,22.15-.86a340.62,340.62,0,0,0,61-10.38,361,361,0,0,0,58.55-21,332.63,332.63,0,0,0,54.19-30.92A255.49,255.49,0,0,0,954.22,363a181.34,181.34,0,0,0,21.31-22.68,4,4,0,0,1,3.14-1.52,3.89,3.89,0,0,1,2.34.76,4,4,0,0,1,1,5.44,154.92,154.92,0,0,1-9.61,13.24c-.8,1-1.67,2.08-2.66,3.21l-2.66,3.12-1.41,1.56c-1.32,1.46-2.68,3-4.09,4.44a262.22,262.22,0,0,1-24.09,22A298,298,0,0,1,911,411.66c-9,5.8-18.48,11.31-28.21,16.39a374,374,0,0,1-60.46,24.73,325.88,325.88,0,0,1-31.8,8.17c-11.06,2.28-22,4-32.52,5.08A301.77,301.77,0,0,1,725.78,467.76Z"/><path class="cls-2" d="M118,183.21c4.38-3,9-5.76,13.63-8.36s9.42-5,14.24-7.34a280.8,280.8,0,0,1,29.79-12,257.36,257.36,0,0,1,31.13-8.36,246.47,246.47,0,0,1,32.08-4.41,222.86,222.86,0,0,1,125.76,28.38A270.82,270.82,0,0,1,417.13,210c2,1.86,3.92,3.79,5.88,5.68,1,1,2,1.89,2.91,2.86l2.83,2.94c1.87,2,3.81,3.89,5.61,5.92l5.44,6.08c7.11,8.21,14,16.63,20.37,25.38s12.48,17.71,18.35,26.8L487,299.37l4.1,6.66,2.06,3.33,2.15,3.26,4.3,6.52c1.44,2.17,3,4.26,4.47,6.4s3,4.28,4.55,6.34l4.71,6.21c1.54,2.09,3.2,4.09,4.84,6.1s3.26,4,4.93,6l5.13,5.85c.85,1,1.69,1.95,2.57,2.91l2.66,2.82c28.08,30.42,62.47,54.95,101,69.79A242,242,0,0,0,663.86,441a274.17,274.17,0,0,0,30.41,6,291.29,291.29,0,0,0,31,2.47,287.06,287.06,0,0,0,31.17-.75,343.85,343.85,0,0,0,61.69-10.49A363.4,363.4,0,0,0,877.31,417a335.81,335.81,0,0,0,54.83-31.28A259.12,259.12,0,0,0,956.9,366a183.61,183.61,0,0,0,21.77-23.16,150.14,150.14,0,0,1-9.4,12.94q-1.23,1.58-2.55,3.09l-2.6,3.05c-1.8,2-3.57,4-5.42,5.92A259,259,0,0,1,935,389.48c-56.06,45.43-130.76,72.11-202.79,74.11-62.62,1.74-126.55-16.75-175.23-56.17-43.59-35.3-72.81-84.73-105.18-130.54C413.08,222.1,367.4,176.34,301,158.36A218.33,218.33,0,0,0,239.2,151,258.64,258.64,0,0,0,177,160a282.73,282.73,0,0,0-30.13,9.87A232.1,232.1,0,0,0,118,183.21Z"/></svg>